<svg height="28" viewBox="0 0 26 28" width="26" xmlns="http://www.w3.org/2000/svg"><g fill="none" fill-rule="evenodd"><path d="m.873.673h8.145c-.51 2.597-.082 4.984 1.285 7.163 3.373 5.376 9.077 4.931 12.432 10.01 1.748 2.64 2.368 5.692 1.862 9.16h-8.123c.128-2.054-.08-3.375-.623-3.965-3.2-3.477-6.664-3.133-10.526-7.713-3.802-4.51-5.285-9.395-4.452-14.655z" fill="#ff4c4c"/><path d="m7.29 2.161c-.05 2.642.56 4.849 1.832 6.622.88 1.226 1.774 2.107 2.596 2.833l.44.382.827.699c.849.724 1.53 1.376 1.902 2.268.088 2.61-.34 4.086-1.521 3.76l-.057-.006-.094-.019-.205-.055-.178-.055-.322-.113-.25-.097-.423-.18-.31-.144-.333-.165-.174-.09-.36-.197-.187-.107-.385-.231c-.066-.04-.132-.082-.198-.125l-.406-.268a18.16 18.16 0 0 1 -3.057-2.633c-3.337-3.576-4.745-7.603-4.23-12.079h5.094z" fill="#2e53c2"/><path d="m25.064.25v9.837h-9.837v-9.837z" fill="#ffb500" fill-rule="nonzero"/></g></svg>